<svg width="128" height="128" viewBox="0 0 128 128" fill="none" xmlns="http://www.w3.org/2000/svg">
<g clip-path="url(#clip0_109_29)">
<path d="M0 64C0 33.8301 0 18.7452 9.37258 9.37258C18.7452 0 33.8301 0 64 0C94.1699 0 109.255 0 118.627 9.37258C128 18.7452 128 33.8301 128 64C128 94.1699 128 109.255 118.627 118.627C109.255 128 94.1699 128 64 128C33.8301 128 18.7452 128 9.37258 118.627C0 109.255 0 94.1699 0 64Z" fill="url(#paint0_linear_109_29)"/>
<path d="M48 80L50.2101 71.168C51.4759 66.1032 54.0946 61.4776 57.7861 57.7861C61.4776 54.0946 66.1032 51.4759 71.168 50.2101L80 48L71.168 45.7899C66.1032 44.5241 61.4776 41.9054 57.7861 38.2139C54.0946 34.5224 51.4759 29.8968 50.2101 24.832L48 16L45.7899 24.832C44.5248 29.8958 41.9074 34.5206 38.2175 38.212C34.5275 41.9034 29.9038 44.5227 24.8405 45.7899L16 48L24.8405 50.2101C29.9038 51.4773 34.5275 54.0966 38.2175 57.788C41.9074 61.4794 44.5248 66.1042 45.7899 71.168L48 80Z" fill="#F6F5F3"/>
</g>
<defs>
<linearGradient id="paint0_linear_109_29" x1="0" y1="0" x2="115.2" y2="128" gradientUnits="userSpaceOnUse">
<stop stop-color="#FFE8DE"/>
<stop offset="0.514423" stop-color="#FFAB6A"/>
<stop offset="1" stop-color="#FF750D"/>
</linearGradient>
<clipPath id="clip0_109_29">
<rect width="128" height="128" fill="white"/>
</clipPath>
</defs>
</svg>
